<svg width="55" height="69" viewBox="0 0 55 69" fill="none" xmlns="http://www.w3.org/2000/svg">
<path d="M1.25708 63.5814H0.576524V64.2619H1.25708V63.5814ZM53.822 64.0626C54.0878 63.7968 54.0878 63.3659 53.822 63.1002L49.491 58.7691C49.2252 58.5034 48.7943 58.5034 48.5286 58.7691C48.2628 59.0349 48.2628 59.4658 48.5286 59.7316L52.3784 63.5814L48.5286 67.4312C48.2628 67.697 48.2628 68.1279 48.5286 68.3936C48.7943 68.6594 49.2252 68.6594 49.491 68.3936L53.822 64.0626ZM0.576524 0.677246V63.5814H1.93764V0.677246H0.576524ZM1.25708 64.2619H53.3408V62.9008H1.25708V64.2619Z" fill="#798386"/>
</svg>
