<svg width="52" height="53" viewBox="0 0 52 53" fill="none" xmlns="http://www.w3.org/2000/svg">
<circle cx="26" cy="26.8086" r="26" fill="#AAE4B7"/>
<path d="M27.2812 31.2139C27.5117 30.9834 27.7773 30.8154 28.0625 30.71C27.4336 29.8701 27.5352 28.5928 28.2969 27.8584L28.3164 27.8389C28.9648 27.1904 29.9219 27.0303 30.7188 27.3584C30.8203 27.0107 31.0117 26.6904 31.2734 26.4287L31.293 26.4092C32.1133 25.5537 33.5938 25.5537 34.418 26.4092L34.4727 26.4639L34.5859 26.3506C36.4688 24.4717 36.4688 21.417 34.5938 19.5381C32.7148 17.6592 29.6602 17.6592 27.7852 19.5381L26.6641 20.6592L28.793 22.7295C29.7422 23.6084 29.7539 25.2334 28.8203 26.1279C27.9336 27.0537 26.3359 27.0537 25.4492 26.1279L24.7109 25.3975C24.6875 25.374 24.6484 25.374 24.6289 25.3975L20.0664 29.9561C19.7773 30.2334 19.7773 30.7373 20.0664 31.0146C20.3594 31.3076 20.8359 31.3076 21.125 31.0146C21.1328 31.0068 22.4414 29.6982 22.4414 29.6982C22.6992 29.4404 23.1211 29.4404 23.3789 29.6982C23.6367 29.9561 23.6367 30.3779 23.3789 30.6357L22.1367 31.8779C21.8047 32.1943 21.8047 32.7686 22.1367 33.085C22.4531 33.417 23.0273 33.417 23.3438 33.085L24.582 31.8467C24.8398 31.5889 25.2617 31.5889 25.5195 31.8467C25.7773 32.1045 25.7773 32.5264 25.5195 32.7842L24.2891 34.0146C23.9492 34.3467 23.9453 34.8936 24.2812 35.2295C24.5977 35.5615 25.1719 35.5615 25.4883 35.2295L26.875 33.8428C26.4102 33.0107 26.5664 31.8936 27.2539 31.2256L27.2812 31.2139Z" fill="#001C25"/>
<path d="M17.3296 19.689C15.5601 21.4585 15.5562 24.3374 17.3218 26.1108L19.7437 28.3999L23.689 24.4546C24.2046 23.9155 25.1343 23.9155 25.6499 24.4546L26.3843 25.189C26.7788 25.5991 27.4858 25.5991 27.8765 25.189C28.0796 24.9858 28.189 24.7202 28.1851 24.4351C28.1812 24.1499 28.0679 23.8843 27.8647 23.6851L23.7632 19.6968C21.9937 17.9194 19.103 17.9155 17.3296 19.689Z" fill="#001C25"/>
<path d="M32.479 32.0391L32.4985 32.0195C32.8384 31.6914 32.8423 31.1016 32.4985 30.7734L31.2798 29.5547L30.5063 28.7812C30.1626 28.4375 29.604 28.4375 29.2603 28.7812L29.2407 28.8008C28.9009 29.1289 28.897 29.7187 29.2407 30.0469L31.2329 32.0391C31.5767 32.3828 32.1353 32.3828 32.479 32.0391Z" fill="#001C25"/>
<path d="M34.6846 29.8306L34.7041 29.811C35.0479 29.4673 35.0479 28.9087 34.7041 28.5649L33.4854 27.3462C33.1572 27.0063 32.5674 27.0024 32.2393 27.3462L32.2197 27.3657C31.8799 27.6938 31.8799 28.2837 32.2197 28.6118L33.4385 29.8306C33.7822 30.1743 34.3408 30.1743 34.6846 29.8306Z" fill="#001C25"/>
<path d="M28.9946 34.209C29.3384 34.5527 29.897 34.5527 30.2407 34.209L30.2603 34.1895C30.604 33.8457 30.604 33.2871 30.2603 32.9434L29.4712 32.1543C29.1274 31.8105 28.5688 31.8105 28.2251 32.1543L28.2056 32.1738C27.8657 32.502 27.8618 33.0918 28.2056 33.4199L28.9946 34.209Z" fill="#001C25"/>
</svg>
