<svg width="1440" height="2020" viewBox="0 0 1440 2020" fill="none" xmlns="http://www.w3.org/2000/svg">
<g clip-path="url(#clip0_1_562)">
<path opacity="0.7" d="M1564.87 1208.29C1654.63 1290.05 969.485 418.08 1051.24 328.318C1133 238.555 1899.51 668.577 1809.74 586.818C1719.98 505.058 1103.27 565.663 1021.51 655.425C939.753 745.188 1475.11 1126.54 1564.87 1208.29Z" fill="white"/>
<path opacity="0.7" d="M585.884 2512.15C617.309 2629.43 511.274 1525.56 628.553 1494.14C745.832 1462.71 1158.93 2238.47 1127.5 2121.19C1096.08 2003.91 544.226 1722.02 426.946 1753.44C309.667 1784.87 554.459 2394.87 585.884 2512.15Z" fill="white"/>
<path opacity="0.7" d="M95.9356 -171.671C17.6462 -264.476 347.507 421.093 254.703 499.382C161.898 577.672 -306.464 319.605 -228.174 412.41C-149.885 505.215 186.441 474.815 279.246 396.525C372.051 318.236 174.225 -78.8661 95.9356 -171.671Z" fill="white"/>
</g>
<defs>
<clipPath id="clip0_1_562">
<rect width="1440" height="2020" fill="white"/>
</clipPath>
</defs>
</svg>
