<svg width="9" height="9" viewBox="0 0 9 9" fill="none" xmlns="http://www.w3.org/2000/svg">
<g clip-path="url(#clip0_1_3865)">
<rect x="0.607422" y="0.734375" width="8.19669" height="8.20625" rx="4.09835" fill="#EAF4F4"/>
<path d="M8.26301 9.0338C8.26301 8.10435 7.89296 7.21296 7.23426 6.55574C6.57556 5.89852 5.68218 5.5293 4.75064 5.5293C3.81911 5.5293 2.92572 5.89852 2.26703 6.55574C1.60833 7.21296 1.23828 8.10435 1.23828 9.0338L4.75064 9.0338H8.26301Z" fill="#B7CDCD"/>
<path d="M6.24367 3.78454C6.24367 4.59861 5.58226 5.25854 4.76637 5.25854C3.95047 5.25854 3.28906 4.59861 3.28906 3.78454C3.28906 2.97048 3.95047 2.31055 4.76637 2.31055C5.58226 2.31055 6.24367 2.97048 6.24367 3.78454Z" fill="#B7CDCD"/>
</g>
<defs>
<clipPath id="clip0_1_3865">
<rect x="0.607422" y="0.734375" width="8.19669" height="8.20625" rx="4.09835" fill="white"/>
</clipPath>
</defs>
</svg>
