<svg width="1440" height="2545" viewBox="0 0 1440 2545" fill="none" xmlns="http://www.w3.org/2000/svg">
<g clip-path="url(#clip0_1_1047)">
<path opacity="0.7" d="M1564.87 1207.96C1654.63 1289.72 969.485 417.748 1051.24 327.986C1133 238.223 1899.51 668.245 1809.74 586.486C1719.98 504.726 1103.27 565.331 1021.51 655.093C939.753 744.856 1475.11 1126.2 1564.87 1207.96Z" fill="white"/>
<path opacity="0.7" d="M585.884 3061.82C617.309 3179.1 511.274 2075.23 628.553 2043.81C745.833 2012.38 1158.93 2788.14 1127.5 2670.86C1096.08 2553.58 544.226 2271.68 426.947 2303.11C309.667 2334.53 554.459 2944.54 585.884 3061.82Z" fill="white"/>
<path opacity="0.7" d="M95.9357 -172.002C17.6463 -264.807 347.508 420.762 254.703 499.051C161.898 577.341 -306.463 319.274 -228.174 412.079C-149.885 504.884 186.442 474.484 279.246 396.194C372.051 317.905 174.225 -79.1972 95.9357 -172.002Z" fill="white"/>
</g>
<defs>
<clipPath id="clip0_1_1047">
<rect width="1440" height="2545" fill="white"/>
</clipPath>
</defs>
</svg>
