<svg width="62" height="124" viewBox="0 0 62 124" fill="none" xmlns="http://www.w3.org/2000/svg">
<circle cx="31" cy="31" r="31" fill="#AAE4B7"/>
<g clip-path="url(#clip0_1_770)">
<path d="M32.7937 37.1688C33.1164 36.8461 33.4883 36.611 33.8875 36.4633C33.007 35.2875 33.1492 33.4993 34.2156 32.4711L34.243 32.4438C35.1508 31.536 36.4906 31.3118 37.6062 31.7711C37.7484 31.2844 38.0164 30.836 38.3828 30.4696L38.4102 30.4422C39.5586 29.2446 41.6312 29.2446 42.7852 30.4422L42.8617 30.5188L43.0203 30.3602C45.6562 27.7297 45.6562 23.4532 43.0312 20.8227C40.4008 18.1922 36.1242 18.1922 33.4992 20.8227L31.9297 22.3922L34.9102 25.2907C36.2391 26.5211 36.2555 28.7961 34.9484 30.0485C33.707 31.3446 31.4703 31.3446 30.2289 30.0485L29.1953 29.0258C29.1625 28.993 29.1078 28.993 29.0805 29.0258L22.693 35.4079C22.2883 35.7961 22.2883 36.5016 22.693 36.8899C23.1031 37.3 23.7703 37.3 24.175 36.8899C24.1859 36.879 26.018 35.0469 26.018 35.0469C26.3789 34.686 26.9695 34.686 27.3305 35.0469C27.6914 35.4079 27.6914 35.9985 27.3305 36.3594L25.5914 38.0985C25.1266 38.5415 25.1266 39.3454 25.5914 39.7883C26.0344 40.2532 26.8383 40.2532 27.2812 39.7883L29.0148 38.0547C29.3758 37.6938 29.9664 37.6938 30.3273 38.0547C30.6883 38.4157 30.6883 39.0063 30.3273 39.3672L28.6047 41.0899C28.1289 41.5547 28.1234 42.3204 28.5937 42.7907C29.0367 43.2555 29.8406 43.2555 30.2836 42.7907L32.225 40.8493C31.5742 39.6844 31.793 38.1204 32.7555 37.1852L32.7937 37.1688Z" fill="#001C25"/>
<path d="M18.8594 21.0347C16.382 23.5121 16.3766 27.5425 18.8484 30.0253L22.2391 33.23L27.7625 27.7066C28.4844 26.9519 29.7859 26.9519 30.5078 27.7066L31.5359 28.7347C32.0883 29.3089 33.0781 29.3089 33.625 28.7347C33.9094 28.4503 34.0625 28.0785 34.057 27.6793C34.0516 27.28 33.893 26.9082 33.6086 26.6293L27.8664 21.0457C25.3891 18.5574 21.3422 18.5519 18.8594 21.0347Z" fill="#001C25"/>
<path d="M40.0672 38.3245L40.0945 38.2971C40.5703 37.8377 40.5758 37.012 40.0945 36.5526L38.3883 34.8463L37.3055 33.7635C36.8242 33.2823 36.0422 33.2823 35.5609 33.7635L35.5336 33.7909C35.0578 34.2502 35.0523 35.076 35.5336 35.5354L38.3226 38.3245C38.8039 38.8057 39.5859 38.8057 40.0672 38.3245Z" fill="#001C25"/>
<path d="M43.1571 35.2318L43.1845 35.2044C43.6657 34.7232 43.6657 33.9412 43.1845 33.4599L41.4782 31.7537C41.0188 31.2779 40.1931 31.2724 39.7337 31.7537L39.7063 31.781C39.2306 32.2404 39.2306 33.0662 39.7063 33.5255L41.4126 35.2318C41.8938 35.713 42.6759 35.713 43.1571 35.2318Z" fill="#001C25"/>
<path d="M35.1891 41.3627C35.6703 41.844 36.4523 41.844 36.9336 41.3627L36.9609 41.3354C37.4422 40.8542 37.4422 40.0721 36.9609 39.5909L35.8562 38.4862C35.375 38.0049 34.593 38.0049 34.1117 38.4862L34.0844 38.5135C33.6086 38.9729 33.6031 39.7987 34.0844 40.2581L35.1891 41.3627Z" fill="#001C25"/>
</g>
<defs>
<clipPath id="clip0_1_770">
<rect width="28" height="28" fill="white" transform="translate(17 17)"/>
</clipPath>
</defs>
</svg>
