<svg width="26" height="26" viewBox="0 0 26 26" fill="none" xmlns="http://www.w3.org/2000/svg">
<g clip-path="url(#clip0_1_3158)">
<rect width="26" height="26" rx="13" fill="#EAF4F4"/>
<path d="M24.2824 26.3263C24.2824 23.3781 23.1086 20.5506 21.0192 18.4659C18.9298 16.3811 16.096 15.21 13.1411 15.21C10.1863 15.21 7.35247 16.3811 5.26308 18.4659C3.17369 20.5506 1.99988 23.3781 1.99988 26.3263L13.1411 26.3263H24.2824Z" fill="#B7CDCD"/>
<path d="M17.8749 9.67554C17.8749 12.2578 15.7768 14.3511 13.1888 14.3511C10.6008 14.3511 8.50281 12.2578 8.50281 9.67554C8.50281 7.09331 10.6008 5 13.1888 5C15.7768 5 17.8749 7.09331 17.8749 9.67554Z" fill="#B7CDCD"/>
</g>
<defs>
<clipPath id="clip0_1_3158">
<rect width="26" height="26" rx="13" fill="white"/>
</clipPath>
</defs>
</svg>
