<svg width="312" height="488" viewBox="0 0 312 488" fill="none" xmlns="http://www.w3.org/2000/svg">
<rect width="312" height="488" rx="16" fill="url(#paint0_linear_1_3032)"/>
<path opacity="0.3" d="M143.951 322.946C149.698 314.765 157.462 308.208 166.49 303.913L261.126 258.884C271.743 253.832 284 261.574 284 273.332V472C284 480.837 276.837 488 268 488H58.7935C45.8369 488 38.2533 473.405 45.7012 462.803L143.951 322.946Z" fill="url(#paint1_linear_1_3032)"/>
<path opacity="0.3" d="M61.961 270.459C63.5377 253.727 72.2944 238.502 85.9639 228.725L137.275 192.025C145.335 186.261 156.643 189.134 160.974 198.046L251.827 385.007C256.991 395.634 249.251 408 237.436 408H66.5786C57.1491 408 49.7645 399.887 50.6492 390.499L61.961 270.459Z" fill="url(#paint2_linear_1_3032)"/>
<defs>
<linearGradient id="paint0_linear_1_3032" x1="156" y1="0" x2="156" y2="488" gradientUnits="userSpaceOnUse">
<stop stop-color="#9EEDEA"/>
<stop offset="1" stop-color="#FFE4D8"/>
</linearGradient>
<linearGradient id="paint1_linear_1_3032" x1="156" y1="248" x2="156" y2="488" gradientUnits="userSpaceOnUse">
<stop stop-color="white"/>
<stop offset="1" stop-color="white" stop-opacity="0"/>
</linearGradient>
<linearGradient id="paint2_linear_1_3032" x1="133.938" y1="125.634" x2="133.938" y2="368.137" gradientUnits="userSpaceOnUse">
<stop stop-color="white"/>
<stop offset="1" stop-color="white" stop-opacity="0"/>
</linearGradient>
</defs>
</svg>
