<svg width="62" height="62" viewBox="0 0 62 62" fill="none" xmlns="http://www.w3.org/2000/svg">
<circle cx="31" cy="31" r="31" fill="#FFB38F"/>
<path fill-rule="evenodd" clip-rule="evenodd" d="M31 21.9585C36.9559 21.9585 41.7917 26.7943 41.7917 32.7502C41.7917 38.706 36.9559 43.5418 31 43.5418C25.0442 43.5418 20.2084 38.706 20.2084 32.7502C20.2084 26.7943 25.0442 21.9585 31 21.9585ZM36.3025 37.6642C34.9737 36.2548 33.0884 35.3752 31 35.3752C28.9117 35.3752 27.0264 36.2548 25.6975 37.6642C25.365 38.0153 25.3814 38.5695 25.7325 38.9008C26.0837 39.2322 26.6379 39.2158 26.9692 38.8647C27.9807 37.7937 29.4122 37.1252 31 37.1252C32.5879 37.1252 34.0194 37.7937 35.0309 38.8647C35.3622 39.2158 35.9164 39.2322 36.2675 38.9008C36.6187 38.5695 36.635 38.0153 36.3025 37.6642ZM38.1167 30.7668C37.5567 30.0225 36.6677 29.5418 35.6667 29.5418C34.6657 29.5418 33.7767 30.0225 33.2167 30.7668C32.9274 31.1518 33.0044 31.7013 33.3905 31.9918C33.7767 32.2812 34.3262 32.2042 34.6167 31.818C34.8559 31.4983 35.2374 31.2918 35.6667 31.2918C36.096 31.2918 36.4775 31.4983 36.7167 31.818C37.0072 32.2042 37.5567 32.2812 37.9429 31.9918C38.329 31.7013 38.406 31.1518 38.1167 30.7668ZM28.7834 30.7668C28.2234 30.0225 27.3344 29.5418 26.3334 29.5418C25.3324 29.5418 24.4434 30.0225 23.8834 30.7668C23.594 31.1518 23.671 31.7013 24.0572 31.9918C24.4434 32.2812 24.9929 32.2042 25.2834 31.818C25.5225 31.4983 25.904 31.2918 26.3334 31.2918C26.7627 31.2918 27.1442 31.4983 27.3834 31.818C27.6739 32.2042 28.2234 32.2812 28.6095 31.9918C28.9957 31.7013 29.0727 31.1518 28.7834 30.7668Z" fill="#001C25"/>
<path fill-rule="evenodd" clip-rule="evenodd" d="M41.7916 22.8335C41.7916 22.3505 42.1836 21.9585 42.6666 21.9585C43.1496 21.9585 43.5416 22.3505 43.5416 22.8335V26.3335C43.5416 26.8165 43.1496 27.2085 42.6666 27.2085C42.1836 27.2085 41.7916 26.8165 41.7916 26.3335V22.8335Z" fill="#001C25"/>
<path fill-rule="evenodd" clip-rule="evenodd" d="M18.4584 22.8335C18.4584 22.3505 18.8504 21.9585 19.3334 21.9585C19.8164 21.9585 20.2084 22.3505 20.2084 22.8335V26.3335C20.2084 26.8165 19.8164 27.2085 19.3334 27.2085C18.8504 27.2085 18.4584 26.8165 18.4584 26.3335V22.8335Z" fill="#001C25"/>
<path fill-rule="evenodd" clip-rule="evenodd" d="M38.2916 19.3335C38.2916 18.8505 38.6836 18.4585 39.1666 18.4585C39.6496 18.4585 40.0416 18.8505 40.0416 19.3335V22.8335C40.0416 23.3165 39.6496 23.7085 39.1666 23.7085C38.6836 23.7085 38.2916 23.3165 38.2916 22.8335V19.3335Z" fill="#001C25"/>
<path fill-rule="evenodd" clip-rule="evenodd" d="M21.9584 19.3335C21.9584 18.8505 22.3504 18.4585 22.8334 18.4585C23.3164 18.4585 23.7084 18.8505 23.7084 19.3335V22.8335C23.7084 23.3165 23.3164 23.7085 22.8334 23.7085C22.3504 23.7085 21.9584 23.3165 21.9584 22.8335V19.3335Z" fill="#001C25"/>
</svg>
