<svg width="62" height="62" viewBox="0 0 62 62" fill="none" xmlns="http://www.w3.org/2000/svg">
<circle cx="31" cy="31" r="31" fill="#9EEDEA"/>
<g clip-path="url(#clip0_1_576)">
<path d="M36.0474 31C36.0474 30.088 36.0147 29.2066 35.9537 28.3601C34.9523 28.168 34.1415 27.4329 33.8419 26.4736H26.236C26.0547 27.8709 25.9527 29.3874 25.9527 31C25.9527 31.9893 25.9913 32.9421 26.0627 33.8538C27.0567 34.0507 27.8602 34.7833 28.1581 35.7373H35.7362C35.9351 34.2823 36.0474 32.694 36.0474 31Z" fill="#001C25"/>
<path d="M36.7649 22.9124C37.8707 23.029 38.7837 23.8018 39.1058 24.8332H43.5662C41.7693 21.1866 38.4315 18.4305 34.4077 17.4204C34.9633 18.1651 35.4697 19.1019 35.9118 20.2187C36.2392 21.0455 36.5243 21.9491 36.7649 22.9124Z" fill="#001C25"/>
<path d="M24.4316 34.0282C24.3526 33.0412 24.312 32.028 24.312 31C24.312 29.444 24.405 27.9222 24.5838 26.4736H17.7512C17.2646 27.8941 17 29.4167 17 31C17 32.662 17.2918 34.257 17.8257 35.7373H22.8942C23.134 34.9696 23.7013 34.3454 24.4316 34.0282Z" fill="#001C25"/>
<path d="M25.2903 39.3035C24.1598 39.2072 23.2217 38.4265 22.8942 37.3779H18.5391C20.3594 40.92 23.6463 43.5892 27.5923 44.5797C27.0367 43.835 26.5303 42.8982 26.0882 41.7815C25.7854 41.0167 25.519 40.186 25.2903 39.3035Z" fill="#001C25"/>
<path d="M26.4947 24.833H33.8419C34.0565 24.1458 34.5335 23.5734 35.155 23.2333C34.1731 19.3632 32.5305 17 31 17C29.2687 17 27.3943 20.0244 26.4947 24.833Z" fill="#001C25"/>
<path d="M23.2632 19.8849C23.2632 21.4049 22.0266 22.6415 20.5065 22.6415C20.2762 22.6415 20.0525 22.6127 19.8385 22.5592C19.3013 23.2678 18.8301 24.0288 18.4338 24.8332H24.8284C25.1272 23.1377 25.5511 21.5753 26.0882 20.2187C26.5303 19.1019 27.0367 18.1651 27.5923 17.4204C26.0096 17.8177 24.5328 18.4848 23.2143 19.3704C23.2459 19.5372 23.2632 19.709 23.2632 19.8849Z" fill="#001C25"/>
<path d="M38.7369 42.1152C38.7369 40.5953 39.9735 39.3586 41.4935 39.3586C41.7238 39.3586 41.9475 39.3874 42.1616 39.4409C42.6516 38.7945 43.0874 38.1048 43.4609 37.3779H37.1333C36.8369 38.992 36.4265 40.4814 35.9118 41.7815C35.4697 42.8982 34.9633 43.835 34.4077 44.5797C35.9905 44.1824 37.4672 43.5153 38.7858 42.6297C38.7541 42.4629 38.7369 42.2911 38.7369 42.1152Z" fill="#001C25"/>
<path d="M35.4651 37.3779H28.1581C27.949 38.0473 27.4907 38.6072 26.8927 38.9501C27.8795 42.7111 29.4939 45 31 45C32.7059 45 34.5507 42.0639 35.4651 37.3779Z" fill="#001C25"/>
<path d="M44.1743 35.7373C44.7082 34.257 45 32.662 45 31C45 29.4167 44.7354 27.8941 44.2488 26.4736H39.1058C38.8678 27.2359 38.3067 27.8564 37.5838 28.1758C37.6525 29.0983 37.688 30.0426 37.688 31C37.688 32.6317 37.5859 34.2259 37.3896 35.7373H44.1743Z" fill="#001C25"/>
<path d="M36.4738 26.7691C37.0892 26.7691 37.5898 26.2685 37.5898 25.6531C37.5898 25.0377 37.0892 24.5371 36.4738 24.5371C35.8585 24.5371 35.3579 25.0377 35.3579 25.6531C35.3579 26.2685 35.8585 26.7691 36.4738 26.7691Z" fill="#001C25"/>
<path d="M25.5262 37.6739C26.1425 37.6739 26.6422 37.1743 26.6422 36.5579C26.6422 35.9415 26.1425 35.4419 25.5262 35.4419C24.9098 35.4419 24.4102 35.9415 24.4102 36.5579C24.4102 37.1743 24.9098 37.6739 25.5262 37.6739Z" fill="#001C25"/>
<path d="M20.5066 21.0011C21.1229 21.0011 21.6226 20.5014 21.6226 19.8851C21.6226 19.2687 21.1229 18.769 20.5066 18.769C19.8902 18.769 19.3905 19.2687 19.3905 19.8851C19.3905 20.5014 19.8902 21.0011 20.5066 21.0011Z" fill="#001C25"/>
<path d="M41.4935 40.9995C40.8781 40.9995 40.3775 41.5001 40.3775 42.1155C40.3775 42.7309 40.8781 43.2315 41.4935 43.2315C42.1088 43.2315 42.6094 42.7309 42.6094 42.1155C42.6094 41.5001 42.1088 40.9995 41.4935 40.9995Z" fill="#001C25"/>
</g>
<defs>
<clipPath id="clip0_1_576">
<rect width="28" height="28" fill="white" transform="translate(17 17)"/>
</clipPath>
</defs>
</svg>
