<svg width="94" height="94" viewBox="0 0 94 94" fill="none" xmlns="http://www.w3.org/2000/svg">
<circle cx="47" cy="47" r="47" fill="#F8DFA1"/>
<g clip-path="url(#clip0_1_674)">
<path d="M26.6639 44.8764C27.1195 45.6208 27.7819 46.2168 28.5704 46.5917C28.9444 46.7695 29.1033 47.2172 28.9252 47.5914C28.747 47.9654 28.2994 48.1243 27.9254 47.9462C27.6255 47.801 27.3384 47.6312 27.0667 47.4383C27.8892 49.8767 30.1742 51.5202 32.7479 51.5244H32.7927C32.7495 51.1104 32.7399 50.6938 32.7636 50.2786C33.0959 46.2793 36.4668 43.2192 40.4795 43.2743H44.7477C45.162 43.2743 45.4975 42.9385 45.4975 42.5245C45.4975 41.2819 46.5049 40.2744 47.7475 40.2744H49.9976C50.4119 40.2744 50.7474 40.6102 50.7474 41.0246C50.7474 41.4386 50.4119 41.7744 49.9976 41.7744H47.7475C47.3332 41.7744 46.9977 42.1102 46.9977 42.5245C46.9977 43.7671 45.9903 44.7742 44.7477 44.7742H40.4795C37.2576 44.7175 34.5413 47.1637 34.2613 50.3737C34.2247 50.9415 34.2686 51.5116 34.3917 52.0672C34.4241 52.2172 34.4622 52.3582 34.5051 52.5001C34.5131 52.5277 34.5215 52.5562 34.5304 52.5841C34.5769 52.734 34.6288 52.8766 34.6865 53.0182L34.7044 53.0609C35.4235 54.7812 36.8952 56.0742 38.6938 56.5657L38.7486 56.5798C38.8857 56.616 39.0251 56.6458 39.1661 56.6721C39.2366 56.6849 39.3087 56.6945 39.3798 56.7051C39.482 56.7202 39.5833 56.7359 39.6868 56.7458C39.872 56.7628 40.0617 56.7743 40.2475 56.7743C42.1454 56.7692 43.9293 55.8678 45.0598 54.3435C44.7044 54.1167 44.3635 53.8687 44.0382 53.6011C43.7197 53.3361 43.6761 52.8632 43.9411 52.5446C44.2058 52.2261 44.6788 52.1826 44.9973 52.4476C47.0695 54.1715 49.8063 54.8738 52.4527 54.3608C55.0991 53.8475 57.3748 52.1729 58.6524 49.7992C58.2499 49.2522 57.9433 48.6409 57.7456 47.991C57.6312 47.5953 57.8574 47.181 58.2525 47.0637C58.6473 46.9461 59.0632 47.1694 59.1833 47.5636C59.7646 49.5352 61.608 50.8624 63.6623 50.7881C65.7166 50.7137 67.4594 49.2567 67.8965 47.2483C68.3338 45.2398 67.3546 43.1903 65.5169 42.2688C65.4215 42.7049 65.2933 43.1333 65.1337 43.5505C64.9831 43.9363 64.548 44.1273 64.1618 43.9764C63.7757 43.8258 63.5851 43.3903 63.7357 43.0045C63.9712 42.3982 64.126 41.7638 64.1955 41.1175C64.2077 41.014 64.215 40.9172 64.2224 40.8176C64.2352 40.6365 64.2474 40.4568 64.2474 40.2744C64.2474 37.0227 62.1476 34.1433 59.0513 33.1497C59.2871 33.5063 59.4967 33.8799 59.6784 34.267C59.8034 34.5121 59.7838 34.8063 59.6278 35.0328C59.4717 35.2594 59.2038 35.3824 58.9302 35.3533C58.6565 35.3238 58.421 35.1469 58.3162 34.8925C56.6776 31.3796 52.6389 29.6855 48.9844 30.9785C48.4313 31.1688 47.9029 31.4235 47.4095 31.7372C47.0621 31.9635 46.5975 31.8654 46.3713 31.5184C46.145 31.1713 46.2431 30.7064 46.5904 30.4802C46.7036 30.4052 46.8221 30.3408 46.9384 30.2719C45.3501 29.5176 43.4864 29.6269 41.9974 30.5622C42.3451 30.8695 42.6559 31.2162 42.9238 31.5956C43.0837 31.8151 43.1122 32.1038 42.9987 32.3505C42.8853 32.5973 42.6472 32.7636 42.3765 32.7847C42.1057 32.8062 41.8446 32.6793 41.6936 32.4534C41.3399 31.9494 40.8868 31.5225 40.3626 31.1995H40.3555C38.4031 29.9854 35.8477 30.4539 34.4532 32.282C34.7499 32.3666 35.0396 32.4745 35.3197 32.605C35.568 32.7161 35.7369 32.9529 35.7609 33.224C35.7846 33.4951 35.6599 33.7579 35.4347 33.9107C35.2094 34.0632 34.9191 34.0821 34.6759 33.9594C33.4615 33.3855 32.0542 33.3839 30.8384 33.9556C29.6231 34.5269 28.7262 35.6115 28.3932 36.9131C28.7967 36.7596 29.2151 36.6504 29.642 36.5876C30.0524 36.5289 30.4325 36.8144 30.4908 37.2246C30.5491 37.6347 30.2639 38.0148 29.8534 38.0731C29.1677 38.1718 28.5144 38.4284 27.945 38.8232L27.935 38.8315C25.9814 40.1812 25.419 42.8206 26.6533 44.8492C26.6578 44.8598 26.6594 44.8688 26.6639 44.8764Z" fill="#001C25"/>
<path d="M57.8725 59.0241C61.8009 59.0241 64.9972 56.5013 64.9972 53.3993C64.9959 52.9673 64.9315 52.5376 64.8059 52.1243C63.0221 52.5306 61.1505 52.0932 59.7316 50.9377C57.9769 53.8299 54.9438 55.7073 51.5725 55.9874C52.6594 57.5088 54.3042 58.5383 56.1476 58.851C56.7148 58.9683 57.2931 59.0263 57.8725 59.0241Z" fill="#001C25"/>
<path d="M49.8477 55.9762C48.7934 55.8836 47.7591 55.633 46.7792 55.2321C46.752 55.2289 46.7251 55.2235 46.6985 55.2164C46.6235 55.1844 46.5485 55.1459 46.4735 55.1129C46.4434 55.0995 46.411 55.0905 46.3812 55.0761C46.1207 55.443 45.8275 55.7855 45.5052 56.0992C45.5456 57.3095 46.5367 58.2708 47.7476 58.2743C48.4179 58.2599 49.0613 58.5386 49.5093 59.0376L53.8473 64.0065C54.0017 64.1747 54.219 64.2718 54.4471 64.274C54.8877 64.2753 55.2459 63.9196 55.2475 63.479V60.1687C52.9199 59.6303 50.9458 58.0977 49.8477 55.9762Z" fill="#001C25"/>
</g>
<defs>
<clipPath id="clip0_1_674">
<rect width="42" height="42" fill="white" transform="translate(26 26)"/>
</clipPath>
</defs>
</svg>
