<svg width="44" height="45" viewBox="0 0 44 45" fill="none" xmlns="http://www.w3.org/2000/svg">
<circle cx="22" cy="22.8086" r="22" fill="#AAE4B7"/>
<path d="M21.9943 15.4451C17.6349 11.6322 12.092 14.9823 12.0011 19.524C11.978 20.6814 12.3121 21.8089 12.9771 22.8483H17.2879L18.0547 21.5703C18.2773 21.1993 18.8161 21.1873 19.0513 21.5572L20.6691 24.0993L23.0272 19.1212C23.2329 18.6868 23.8457 18.673 24.0726 19.0942L26.094 22.8483H31.0115C34.6542 17.155 27.4549 10.6691 21.9943 15.4451Z" fill="#001C25"/>
<path d="M25.2282 23.7119L23.5902 20.6699L21.274 25.5598C21.0769 25.9758 20.4973 26.0119 20.2502 25.6235L18.5718 22.9861L18.1221 23.7356C18.0162 23.9121 17.8255 24.02 17.6197 24.02H13.9041C14.0205 24.1419 13.3998 23.5224 21.5811 31.6614C21.8096 31.8888 22.179 31.8888 22.4075 31.6614C30.463 23.6476 29.9684 24.1417 30.0846 24.02H25.7441C25.5285 24.0201 25.3304 23.9017 25.2282 23.7119Z" fill="#001C25"/>
</svg>
