<svg width="62" height="62" viewBox="0 0 62 62" fill="none" xmlns="http://www.w3.org/2000/svg">
<circle cx="31" cy="31" r="31" fill="#F8DFA1"/>
<g clip-path="url(#clip0_1_582)">
<path d="M24.6193 23.4602L22.2993 21.1402C21.9789 20.8198 21.4598 20.8198 21.1394 21.1402C20.8189 21.4606 20.8189 21.9798 21.1394 22.3002L23.4593 24.6201C23.7797 24.9406 24.2989 24.9406 24.6193 24.6201C24.9397 24.2997 24.9397 23.7806 24.6193 23.4602Z" fill="#001C25"/>
<path d="M21.1563 30.1797H17.8203C17.3669 30.1797 17 30.5466 17 31C17 31.4534 17.3669 31.8203 17.8203 31.8203H21.1563C21.6097 31.8203 21.9766 31.4534 21.9766 31C21.9766 30.5466 21.6097 30.1797 21.1563 30.1797Z" fill="#001C25"/>
<path d="M44.1797 30.1797H40.8438C40.3903 30.1797 40.0234 30.5466 40.0234 31C40.0234 31.4534 40.3903 31.8203 40.8438 31.8203H44.1797C44.6331 31.8203 45 31.4534 45 31C45 30.5466 44.6331 30.1797 44.1797 30.1797Z" fill="#001C25"/>
<path d="M40.8606 21.1402C40.5401 20.8198 40.021 20.8198 39.7006 21.1402L37.3806 23.4602C37.0602 23.7806 37.0602 24.2997 37.3806 24.6201C37.701 24.9406 38.2202 24.9406 38.5406 24.6201L40.8606 22.3002C41.181 21.9798 41.181 21.4607 40.8606 21.1402Z" fill="#001C25"/>
<path d="M31 17C30.5466 17 30.1797 17.3669 30.1797 17.8203V21.1563C30.1797 21.6097 30.5466 21.9766 31 21.9766C31.4534 21.9766 31.8203 21.6097 31.8203 21.1563V17.8203C31.8203 17.3669 31.4534 17 31 17Z" fill="#001C25"/>
<path d="M35.5937 25.2082C33.8055 23.7973 31.4922 23.2887 29.2281 23.8301C26.6031 24.4372 24.4868 26.5207 23.8469 29.1294C23.207 31.7543 23.9453 34.4121 25.832 36.266C26.5047 36.9387 26.8984 37.9942 26.8984 39.077V39.2575C26.8984 39.7168 27.2593 40.0778 27.7187 40.0778H34.2812C34.7407 40.0778 35.1015 39.7168 35.1015 39.2575V39.077C35.1015 38.0106 35.5117 36.9223 36.2336 36.2168C37.6118 34.8223 38.3828 32.9684 38.3828 30.9997C38.3828 28.7356 37.3656 26.6192 35.5937 25.2082ZM31 28.5387C29.7624 28.5387 28.8615 29.3597 28.6256 30.31C28.5182 30.7422 28.0833 31.018 27.6314 30.9092C27.1924 30.8002 26.924 30.3548 27.033 29.9158C27.4394 28.2752 28.9804 26.8981 31 26.8981C31.4534 26.8981 31.8203 27.265 31.8203 27.7184C31.8203 28.1718 31.4534 28.5387 31 28.5387Z" fill="#001C25"/>
<path d="M27.7188 41.7188V42.5391C27.7188 43.8961 28.8227 45 30.1797 45H31.8203C33.1773 45 34.2813 43.8961 34.2813 42.5391V41.7188H27.7188Z" fill="#001C25"/>
</g>
<defs>
<clipPath id="clip0_1_582">
<rect width="28" height="28" fill="white" transform="translate(17 17)"/>
</clipPath>
</defs>
</svg>
