<svg width="48" height="49" viewBox="0 0 48 49" fill="none" xmlns="http://www.w3.org/2000/svg">
<circle cx="24" cy="24.8086" r="24" fill="#FFB38F"/>
<path d="M36.8346 30.6423C36.8346 30.9517 36.7117 31.2484 36.4929 31.4672C36.2741 31.686 35.9774 31.8089 35.668 31.8089C35.3585 31.8089 35.0618 31.686 34.843 31.4672C34.6242 31.2484 34.5013 30.9517 34.5013 30.6423C34.4913 28.8756 33.9877 27.1469 33.0475 25.6512C32.1073 24.1555 30.7679 22.9523 29.1803 22.1773C29.6044 22.99 29.8287 23.8922 29.8346 24.8089V26.2673C29.7556 29.3096 28.492 32.201 26.3129 34.3256C24.1338 36.4502 21.2114 37.6402 18.168 37.6423C17.8585 37.6423 17.5618 37.5193 17.343 37.3005C17.1242 37.0818 17.0013 36.785 17.0013 36.4756C17.0013 36.1662 17.1242 35.8694 17.343 35.6506C17.5618 35.4318 17.8585 35.3089 18.168 35.3089C19.9346 35.2989 21.6633 34.7954 23.159 33.8552C24.6547 32.915 25.858 31.5755 26.633 29.9879C25.8202 30.412 24.9181 30.6363 24.0013 30.6423H22.543C19.5006 30.5632 16.6092 29.2996 14.4846 27.1205C12.36 24.9414 11.17 22.019 11.168 18.9756C11.168 18.6662 11.2909 18.3694 11.5097 18.1506C11.7285 17.9318 12.0252 17.8089 12.3346 17.8089C12.6441 17.8089 12.9408 17.9318 13.1596 18.1506C13.3784 18.3694 13.5013 18.6662 13.5013 18.9756C13.5113 20.7422 14.0149 22.4709 14.9551 23.9666C15.8953 25.4624 17.2347 26.6656 18.8224 27.4406C18.3982 26.6278 18.1739 25.7257 18.168 24.8089V23.3506C18.247 20.3082 19.5106 17.4168 21.6897 15.2922C23.8688 13.1676 26.7912 11.9776 29.8346 11.9756C30.1441 11.9756 30.4408 12.0985 30.6596 12.3173C30.8784 12.5361 31.0013 12.8328 31.0013 13.1423C31.0013 13.4517 30.8784 13.7484 30.6596 13.9672C30.4408 14.186 30.1441 14.3089 29.8346 14.3089C28.068 14.319 26.3393 14.8225 24.8436 15.7627C23.3479 16.7029 22.1446 18.0423 21.3697 19.63C22.1824 19.2058 23.0845 18.9815 24.0013 18.9756H25.4596C28.502 19.0546 31.3934 20.3182 33.518 22.4973C35.6426 24.6764 36.8326 27.5988 36.8346 30.6423ZM34.5013 35.3089C34.5013 35.0782 34.4329 34.8526 34.3047 34.6608C34.1765 34.4689 33.9943 34.3194 33.7811 34.2311C33.5679 34.1428 33.3333 34.1197 33.107 34.1647C32.8807 34.2097 32.6728 34.3208 32.5097 34.484C32.3465 34.6471 32.2354 34.855 32.1904 35.0813C32.1454 35.3076 32.1685 35.5422 32.2568 35.7554C32.3451 35.9686 32.4946 36.1508 32.6865 36.279C32.8783 36.4072 33.1039 36.4756 33.3346 36.4756C33.6441 36.4756 33.9408 36.3527 34.1596 36.1339C34.3784 35.9151 34.5013 35.6183 34.5013 35.3089ZM33.3346 15.4756C33.3346 15.7063 33.4031 15.9319 33.5313 16.1238C33.6594 16.3156 33.8417 16.4651 34.0548 16.5534C34.268 16.6417 34.5026 16.6649 34.7289 16.6198C34.9552 16.5748 35.1631 16.4637 35.3263 16.3005C35.4894 16.1374 35.6005 15.9295 35.6456 15.7032C35.6906 15.4769 35.6675 15.2423 35.5792 15.0291C35.4909 14.8159 35.3413 14.6337 35.1495 14.5055C34.9576 14.3773 34.732 14.3089 34.5013 14.3089C34.1919 14.3089 33.8951 14.4318 33.6763 14.6506C33.4576 14.8694 33.3346 15.1662 33.3346 15.4756ZM13.5013 14.3089C13.5013 14.5397 13.5697 14.7652 13.6979 14.9571C13.8261 15.1489 14.0083 15.2985 14.2215 15.3868C14.4347 15.4751 14.6693 15.4982 14.8956 15.4532C15.1219 15.4082 15.3298 15.297 15.4929 15.1339C15.6561 14.9707 15.7672 14.7628 15.8122 14.5365C15.8572 14.3102 15.8341 14.0756 15.7458 13.8625C15.6575 13.6493 15.508 13.4671 15.3161 13.3389C15.1243 13.2107 14.8987 13.1423 14.668 13.1423C14.3585 13.1423 14.0618 13.2652 13.843 13.484C13.6242 13.7028 13.5013 13.9995 13.5013 14.3089ZM13.5013 35.3089C13.732 35.3089 13.9576 35.2405 14.1495 35.1123C14.3413 34.9841 14.4909 34.8019 14.5792 34.5887C14.6675 34.3755 14.6906 34.141 14.6456 33.9146C14.6005 33.6883 14.4894 33.4805 14.3263 33.3173C14.1631 33.1541 13.9552 33.043 13.7289 32.998C13.5026 32.953 13.268 32.9761 13.0548 33.0644C12.8417 33.1527 12.6594 33.3022 12.5313 33.4941C12.4031 33.6859 12.3346 33.9115 12.3346 34.1423C12.3346 34.4517 12.4576 34.7484 12.6763 34.9672C12.8951 35.186 13.1919 35.3089 13.5013 35.3089Z" fill="#001C25"/>
</svg>
