<svg width="94" height="94" viewBox="0 0 94 94" fill="none" xmlns="http://www.w3.org/2000/svg">
<circle cx="47" cy="47" r="47" fill="#FFB38F"/>
<path d="M66.25 55.7498C66.25 56.2139 66.0656 56.659 65.7374 56.9872C65.4092 57.3154 64.9641 57.4998 64.5 57.4998C64.0359 57.4998 63.5908 57.3154 63.2626 56.9872C62.9344 56.659 62.75 56.2139 62.75 55.7498C62.7349 53.0998 61.9797 50.5068 60.5694 48.2632C59.1591 46.0196 57.1499 44.2148 54.7684 43.0523C55.4047 44.2714 55.7411 45.6247 55.75 46.9998V49.1873C55.6314 53.7509 53.736 58.0879 50.4674 61.2748C47.1987 64.4617 42.8151 66.2468 38.25 66.2498C37.7859 66.2498 37.3408 66.0654 37.0126 65.7372C36.6844 65.409 36.5 64.9639 36.5 64.4998C36.5 64.0357 36.6844 63.5905 37.0126 63.2623C37.3408 62.9342 37.7859 62.7498 38.25 62.7498C40.9 62.7347 43.493 61.9794 45.7366 60.5691C47.9802 59.1588 49.785 57.1496 50.9475 54.7682C49.7283 55.4044 48.3751 55.7409 47 55.7498H44.8125C40.2489 55.6312 35.9119 53.7358 32.725 50.4672C29.538 47.1985 27.753 42.8149 27.75 38.2498C27.75 37.7857 27.9344 37.3405 28.2626 37.0124C28.5908 36.6842 29.0359 36.4998 29.5 36.4998C29.9641 36.4998 30.4092 36.6842 30.7374 37.0124C31.0656 37.3405 31.25 37.7857 31.25 38.2498C31.2651 40.8998 32.0203 43.4928 33.4306 45.7364C34.8409 47.9799 36.8501 49.7848 39.2316 50.9473C38.5954 49.7281 38.2589 48.3749 38.25 46.9998V44.8123C38.3686 40.2487 40.264 35.9117 43.5326 32.7248C46.8013 29.5378 51.1849 27.7528 55.75 27.7498C56.2141 27.7498 56.6593 27.9342 56.9874 28.2623C57.3156 28.5905 57.5 29.0357 57.5 29.4998C57.5 29.9639 57.3156 30.409 56.9874 30.7372C56.6593 31.0654 56.2141 31.2498 55.75 31.2498C53.1 31.2648 50.507 32.0201 48.2634 33.4304C46.0198 34.8407 44.215 36.8499 43.0525 39.2314C44.2717 38.5951 45.6249 38.2586 47 38.2498H49.1875C53.7511 38.3684 58.0881 40.2638 61.275 43.5324C64.462 46.801 66.247 51.1847 66.25 55.7498ZM62.75 62.7498C62.75 62.4037 62.6474 62.0653 62.4551 61.7775C62.2628 61.4897 61.9895 61.2654 61.6697 61.133C61.3499 61.0005 60.9981 60.9659 60.6586 61.0334C60.3191 61.1009 60.0073 61.2676 59.7626 61.5123C59.5178 61.7571 59.3512 62.0689 59.2836 62.4084C59.2161 62.7478 59.2508 63.0997 59.3832 63.4195C59.5157 63.7393 59.74 64.0126 60.0278 64.2049C60.3155 64.3972 60.6539 64.4998 61 64.4998C61.4641 64.4998 61.9092 64.3154 62.2374 63.9872C62.5656 63.659 62.75 63.2139 62.75 62.7498ZM61 32.9998C61 33.3459 61.1026 33.6842 61.2949 33.972C61.4872 34.2598 61.7605 34.4841 62.0803 34.6166C62.4001 34.749 62.7519 34.7837 63.0914 34.7162C63.4309 34.6486 63.7427 34.482 63.9874 34.2372C64.2322 33.9925 64.3988 33.6807 64.4664 33.3412C64.5339 33.0017 64.4992 32.6499 64.3668 32.3301C64.2343 32.0103 64.01 31.737 63.7222 31.5447C63.4345 31.3524 63.0961 31.2498 62.75 31.2498C62.2859 31.2498 61.8408 31.4342 61.5126 31.7623C61.1844 32.0905 61 32.5357 61 32.9998ZM31.25 31.2498C31.25 31.5959 31.3526 31.9342 31.5449 32.222C31.7372 32.5098 32.0105 32.7341 32.3303 32.8666C32.6501 32.999 33.0019 33.0337 33.3414 32.9662C33.6809 32.8986 33.9927 32.732 34.2374 32.4872C34.4822 32.2425 34.6489 31.9307 34.7164 31.5912C34.7839 31.2517 34.7492 30.8999 34.6168 30.5801C34.4843 30.2603 34.26 29.987 33.9722 29.7947C33.6845 29.6024 33.3461 29.4998 33 29.4998C32.5359 29.4998 32.0908 29.6842 31.7626 30.0123C31.4344 30.3405 31.25 30.7857 31.25 31.2498ZM31.25 62.7498C31.5961 62.7498 31.9345 62.6472 32.2222 62.4549C32.51 62.2626 32.7343 61.9893 32.8668 61.6695C32.9992 61.3497 33.0339 60.9978 32.9664 60.6584C32.8989 60.3189 32.7322 60.0071 32.4874 59.7623C32.2427 59.5176 31.9309 59.3509 31.5914 59.2834C31.2519 59.2159 30.9001 59.2505 30.5803 59.383C30.2605 59.5154 29.9872 59.7398 29.7949 60.0275C29.6026 60.3153 29.5 60.6537 29.5 60.9998C29.5 61.4639 29.6844 61.909 30.0126 62.2372C30.3408 62.5654 30.7859 62.7498 31.25 62.7498Z" fill="#001C25"/>
</svg>
