<svg width="62" height="62" viewBox="0 0 62 62" fill="none" xmlns="http://www.w3.org/2000/svg">
<circle cx="31" cy="31" r="31" fill="#AAE4B7"/>
<path d="M30.992 20.6907C24.8889 15.3527 17.1288 20.0429 17.0016 26.4012C16.9692 28.0216 17.4369 29.6 18.368 31.0552H24.4031L25.4765 29.2661C25.7882 28.7466 26.5425 28.7299 26.8719 29.2478L29.1367 32.8067L32.4381 25.8373C32.726 25.2291 33.584 25.2098 33.9016 25.7995L36.7315 31.0552H43.6161C48.7159 23.0846 38.6369 14.0043 30.992 20.6907Z" fill="#001C25"/>
<path d="M35.5194 32.2642L33.2262 28.0054L29.9835 34.8512C29.7076 35.4336 28.8961 35.4842 28.5502 34.9404L26.2004 31.248L25.5708 32.2973C25.4226 32.5444 25.1556 32.6955 24.8675 32.6955H19.6656C19.8287 32.8662 18.9596 31.9988 30.4135 43.3934C30.7334 43.7117 31.2505 43.7118 31.5705 43.3934C42.8482 32.1742 42.1556 32.8658 42.3184 32.6955H36.2416C35.9398 32.6956 35.6625 32.5299 35.5194 32.2642Z" fill="#001C25"/>
</svg>
