<svg width="48" height="49" viewBox="0 0 48 49" fill="none" xmlns="http://www.w3.org/2000/svg">
<circle cx="24" cy="24.8086" r="24" fill="#9EEDEA"/>
<g clip-path="url(#clip0_1_4418)">
<path d="M21.5391 38.8086V36.293C19.7294 36.293 18.2578 34.8214 18.2578 33.0117C18.2578 31.2021 19.7294 29.7305 21.5391 29.7305V27.2695H16.9536L17.3438 26.1736C17.4063 25.9998 17.4375 25.8164 17.4375 25.6289C17.4375 24.7245 16.7013 23.9883 15.7969 23.9883C14.8925 23.9883 14.1562 24.7245 14.1562 25.6289C14.1562 25.8164 14.1875 25.9998 14.25 26.1736L14.6401 27.2695H10C10.407 33.3996 15.409 38.4016 21.5391 38.8086Z" fill="#001C25"/>
<path d="M15.7969 22.3482C17.6065 22.3482 19.0781 23.8198 19.0781 25.6295H21.5391V21.044L22.6349 21.4342C23.6451 21.7938 24.8195 20.9783 24.8203 19.8873C24.8195 18.7954 23.6459 17.9735 22.6349 18.3404L21.5391 18.7305V14.1866C15.409 14.5937 10.407 19.4994 10 25.6295H12.5156C12.5156 23.8198 13.9872 22.3482 15.7969 22.3482Z" fill="#001C25"/>
<path d="M34.6225 27.2695H32.2031C32.2031 29.0792 30.7315 30.5508 28.9219 30.5508C27.1122 30.5508 25.6406 29.0792 25.6406 27.2695H23.1797V31.855L22.0838 31.4648C21.0696 31.1003 19.8976 31.9198 19.8984 33.0117C19.8976 34.1036 21.0704 34.9231 22.0838 34.5586L23.1797 34.1685V38.8086C29.3097 38.4016 34.2155 33.3996 34.6225 27.2695Z" fill="#001C25"/>
<path d="M34.6641 17.4258V14.1445H31.3828C31.3828 12.3349 29.9112 10.8086 28.1016 10.8086C26.2919 10.8086 24.8203 12.3349 24.8203 14.1445H23.1797V16.6055C24.9894 16.6055 26.4609 18.0771 26.4609 19.8867C26.4609 21.6964 24.9894 23.168 23.1797 23.168V25.6289H27.7651L27.375 26.7248C27.3125 26.8986 27.2812 27.0821 27.2812 27.2695C27.2812 28.174 28.0175 28.9102 28.9219 28.9102C29.8263 28.9102 30.5625 28.174 30.5625 27.2695C30.5625 27.0821 30.5313 26.8986 30.4688 26.7248L30.0786 25.6289H34.6641V23.9883C36.4737 23.9883 38 22.5167 38 20.707C38 18.8974 36.4737 17.4258 34.6641 17.4258Z" fill="#001C25"/>
</g>
<defs>
<clipPath id="clip0_1_4418">
<rect width="28" height="28" fill="white" transform="translate(10 10.8086)"/>
</clipPath>
</defs>
</svg>
