<svg width="44" height="45" viewBox="0 0 44 45" fill="none" xmlns="http://www.w3.org/2000/svg">
<circle cx="22" cy="22.8086" r="22" fill="#F8DFA1"/>
<g clip-path="url(#clip0_1_4335)">
<path d="M17.4425 17.423L15.7854 15.7659C15.5565 15.537 15.1857 15.537 14.9568 15.7659C14.7279 15.9948 14.7279 16.3656 14.9568 16.5944L16.6139 18.2516C16.8428 18.4804 17.2136 18.4804 17.4425 18.2516C17.6713 18.0227 17.6713 17.6519 17.4425 17.423Z" fill="#001C25"/>
<path d="M14.9688 22.2227H12.5859C12.2621 22.2227 12 22.4847 12 22.8086C12 23.1325 12.2621 23.3945 12.5859 23.3945H14.9688C15.2926 23.3945 15.5547 23.1325 15.5547 22.8086C15.5547 22.4847 15.2926 22.2227 14.9688 22.2227Z" fill="#001C25"/>
<path d="M31.4141 22.2227H29.0313C28.7074 22.2227 28.4453 22.4847 28.4453 22.8086C28.4453 23.1325 28.7074 23.3945 29.0313 23.3945H31.4141C31.7379 23.3945 32 23.1325 32 22.8086C32 22.4847 31.7379 22.2227 31.4141 22.2227Z" fill="#001C25"/>
<path d="M29.0433 15.7659C28.8144 15.537 28.4436 15.537 28.2147 15.7659L26.5576 17.423C26.3288 17.6519 26.3288 18.0227 26.5576 18.2516C26.7865 18.4804 27.1573 18.4804 27.3862 18.2516L29.0433 16.5944C29.2722 16.3656 29.2722 15.9948 29.0433 15.7659Z" fill="#001C25"/>
<path d="M22 12.8086C21.6761 12.8086 21.4141 13.0707 21.4141 13.3945V15.7773C21.4141 16.1012 21.6761 16.3633 22 16.3633C22.3239 16.3633 22.5859 16.1012 22.5859 15.7773V13.3945C22.5859 13.0707 22.3239 12.8086 22 12.8086Z" fill="#001C25"/>
<path d="M25.2811 18.6719C24.0038 17.6641 22.3514 17.3008 20.7343 17.6875C18.8593 18.1211 17.3476 19.6094 16.8905 21.4727C16.4335 23.3477 16.9608 25.2461 18.3084 26.5703C18.7889 27.0508 19.0702 27.8047 19.0702 28.5782V28.7071C19.0702 29.0352 19.328 29.293 19.6561 29.293H24.3436C24.6718 29.293 24.9296 29.0352 24.9296 28.7071V28.5782C24.9296 27.8164 25.2225 27.0391 25.7382 26.5352C26.7226 25.5391 27.2733 24.2149 27.2733 22.8086C27.2733 21.1915 26.5468 19.6797 25.2811 18.6719ZM21.9999 21.0508C21.1159 21.0508 20.4724 21.6372 20.3039 22.316C20.2272 22.6247 19.9166 22.8217 19.5938 22.744C19.2802 22.6662 19.0885 22.348 19.1663 22.0345C19.4566 20.8626 20.5573 19.879 21.9999 19.879C22.3238 19.879 22.5858 20.141 22.5858 20.4649C22.5858 20.7888 22.3238 21.0508 21.9999 21.0508Z" fill="#001C25"/>
<path d="M19.6562 30.4651V31.051C19.6562 32.0203 20.4448 32.8088 21.4141 32.8088H22.5859C23.5552 32.8088 24.3437 32.0203 24.3437 31.051V30.4651H19.6562Z" fill="#001C25"/>
</g>
<defs>
<clipPath id="clip0_1_4335">
<rect width="20" height="20" fill="white" transform="translate(12 12.8086)"/>
</clipPath>
</defs>
</svg>
