<svg width="44" height="45" viewBox="0 0 44 45" fill="none" xmlns="http://www.w3.org/2000/svg">
<circle cx="22" cy="22.8086" r="22" fill="#FFB38F"/>
<path fill-rule="evenodd" clip-rule="evenodd" d="M22.0001 16.3501C26.2542 16.3501 29.7084 19.8043 29.7084 24.0584C29.7084 28.3126 26.2542 31.7668 22.0001 31.7668C17.7459 31.7668 14.2917 28.3126 14.2917 24.0584C14.2917 19.8043 17.7459 16.3501 22.0001 16.3501ZM25.7876 27.5684C24.8384 26.5618 23.4917 25.9334 22.0001 25.9334C20.5084 25.9334 19.1617 26.5618 18.2126 27.5684C17.9751 27.8193 17.9867 28.2151 18.2376 28.4518C18.4884 28.6884 18.8842 28.6768 19.1209 28.4259C19.8434 27.6609 20.8659 27.1834 22.0001 27.1834C23.1342 27.1834 24.1567 27.6609 24.8792 28.4259C25.1159 28.6768 25.5117 28.6884 25.7626 28.4518C26.0134 28.2151 26.0251 27.8193 25.7876 27.5684ZM27.0834 22.6418C26.6834 22.1101 26.0484 21.7668 25.3334 21.7668C24.6184 21.7668 23.9834 22.1101 23.5834 22.6418C23.3767 22.9168 23.4317 23.3093 23.7076 23.5168C23.9834 23.7234 24.3759 23.6684 24.5834 23.3926C24.7542 23.1643 25.0267 23.0168 25.3334 23.0168C25.6401 23.0168 25.9126 23.1643 26.0834 23.3926C26.2909 23.6684 26.6834 23.7234 26.9592 23.5168C27.2351 23.3093 27.2901 22.9168 27.0834 22.6418ZM20.4167 22.6418C20.0167 22.1101 19.3817 21.7668 18.6667 21.7668C17.9517 21.7668 17.3167 22.1101 16.9167 22.6418C16.7101 22.9168 16.7651 23.3093 17.0409 23.5168C17.3167 23.7234 17.7092 23.6684 17.9167 23.3926C18.0876 23.1643 18.3601 23.0168 18.6667 23.0168C18.9734 23.0168 19.2459 23.1643 19.4167 23.3926C19.6242 23.6684 20.0167 23.7234 20.2926 23.5168C20.5684 23.3093 20.6234 22.9168 20.4167 22.6418Z" fill="#001C25"/>
<path fill-rule="evenodd" clip-rule="evenodd" d="M29.7083 16.9751C29.7083 16.6301 29.9883 16.3501 30.3333 16.3501C30.6783 16.3501 30.9583 16.6301 30.9583 16.9751V19.4751C30.9583 19.8201 30.6783 20.1001 30.3333 20.1001C29.9883 20.1001 29.7083 19.8201 29.7083 19.4751V16.9751Z" fill="#001C25"/>
<path fill-rule="evenodd" clip-rule="evenodd" d="M13.0417 16.9751C13.0417 16.6301 13.3217 16.3501 13.6667 16.3501C14.0117 16.3501 14.2917 16.6301 14.2917 16.9751V19.4751C14.2917 19.8201 14.0117 20.1001 13.6667 20.1001C13.3217 20.1001 13.0417 19.8201 13.0417 19.4751V16.9751Z" fill="#001C25"/>
<path fill-rule="evenodd" clip-rule="evenodd" d="M27.2083 14.4753C27.2083 14.1303 27.4883 13.8503 27.8333 13.8503C28.1783 13.8503 28.4583 14.1303 28.4583 14.4753V16.9753C28.4583 17.3203 28.1783 17.6003 27.8333 17.6003C27.4883 17.6003 27.2083 17.3203 27.2083 16.9753V14.4753Z" fill="#001C25"/>
<path fill-rule="evenodd" clip-rule="evenodd" d="M15.5415 14.4753C15.5415 14.1303 15.8215 13.8503 16.1665 13.8503C16.5115 13.8503 16.7915 14.1303 16.7915 14.4753V16.9753C16.7915 17.3203 16.5115 17.6003 16.1665 17.6003C15.8215 17.6003 15.5415 17.3203 15.5415 16.9753V14.4753Z" fill="#001C25"/>
</svg>
