<svg width="94" height="94" viewBox="0 0 94 94" fill="none" xmlns="http://www.w3.org/2000/svg">
<circle cx="47" cy="47" r="47" fill="#9EEDEA"/>
<g clip-path="url(#clip0_1_665)">
<path d="M43.3086 68V64.2266C40.5941 64.2266 38.3867 62.0192 38.3867 59.3047C38.3867 56.5902 40.5941 54.3828 43.3086 54.3828V50.6914H36.4304L37.0156 49.0476C37.1094 48.7868 37.1562 48.5117 37.1562 48.2305C37.1562 46.8738 36.0519 45.7695 34.6953 45.7695C33.3387 45.7695 32.2344 46.8738 32.2344 48.2305C32.2344 48.5117 32.2812 48.7868 32.375 49.0476L32.9602 50.6914H26C26.6106 59.8865 34.1135 67.3894 43.3086 68Z" fill="#001C25"/>
<path d="M34.6953 43.3094C37.4098 43.3094 39.6172 45.5167 39.6172 48.2312H43.3086V41.3531L44.9524 41.9383C46.4677 42.4778 48.2292 41.2546 48.2305 39.618C48.2292 37.9801 46.4688 36.7473 44.9524 37.2976L43.3086 37.8828V31.067C34.1135 31.6776 26.6106 39.0362 26 48.2312H29.7734C29.7734 45.5167 31.9808 43.3094 34.6953 43.3094Z" fill="#001C25"/>
<path d="M62.9337 50.6914H59.3047C59.3047 53.4059 57.0973 55.6133 54.3828 55.6133C51.6683 55.6133 49.4609 53.4059 49.4609 50.6914H45.7695V57.5696L44.1257 56.9844C42.6044 56.4376 40.8464 57.6669 40.8477 59.3047C40.8464 60.9425 42.6057 62.1718 44.1257 61.625L45.7695 61.0398V68C54.9646 67.3894 62.3232 59.8865 62.9337 50.6914Z" fill="#001C25"/>
<path d="M62.9961 35.9258V31.0039H58.0742C58.0742 28.2894 55.8668 26 53.1523 26C50.4378 26 48.2305 28.2894 48.2305 31.0039H45.7695V34.6953C48.484 34.6953 50.6914 36.9027 50.6914 39.6172C50.6914 42.3317 48.484 44.5391 45.7695 44.5391V48.2305H52.6477L52.0625 49.8743C51.9687 50.1351 51.9219 50.4102 51.9219 50.6914C51.9219 52.048 53.0262 53.1523 54.3828 53.1523C55.7394 53.1523 56.8438 52.048 56.8438 50.6914C56.8438 50.4102 56.7969 50.1351 56.7031 49.8743L56.1179 48.2305H62.9961V45.7695C65.7106 45.7695 68 43.5622 68 40.8477C68 38.1332 65.7106 35.9258 62.9961 35.9258Z" fill="#001C25"/>
</g>
<defs>
<clipPath id="clip0_1_665">
<rect width="42" height="42" fill="white" transform="translate(26 26)"/>
</clipPath>
</defs>
</svg>
