<svg width="44" height="45" viewBox="0 0 44 45" fill="none" xmlns="http://www.w3.org/2000/svg">
<circle cx="22" cy="22.8086" r="22" fill="#9EEDEA"/>
<g clip-path="url(#clip0_1_4328)">
<path d="M25.6053 22.8088C25.6053 22.1574 25.582 21.5278 25.5384 20.9231C24.8231 20.786 24.2439 20.2608 24.0299 19.5757H18.5972C18.4676 20.5737 18.3948 21.6569 18.3948 22.8088C18.3948 23.5154 18.4224 24.196 18.4734 24.8472C19.1833 24.9879 19.7573 25.5112 19.9701 26.1926H25.383C25.525 25.1533 25.6053 24.0188 25.6053 22.8088Z" fill="#001C25"/>
<path d="M26.1178 17.0317C26.9076 17.115 27.5598 17.667 27.7899 18.4038H30.9758C29.6923 15.799 27.3082 13.8304 24.4341 13.1089C24.8309 13.6408 25.1926 14.31 25.5084 15.1076C25.7422 15.6983 25.9459 16.3437 26.1178 17.0317Z" fill="#001C25"/>
<path d="M17.3083 24.9718C17.2519 24.2668 17.2229 23.5431 17.2229 22.8088C17.2229 21.6974 17.2893 20.6104 17.417 19.5757H12.5366C12.189 20.5903 12 21.6779 12 22.8088C12 23.996 12.2084 25.1353 12.5898 26.1926H16.2102C16.3814 25.6442 16.7866 25.1984 17.3083 24.9718Z" fill="#001C25"/>
<path d="M17.9217 28.7396C17.1142 28.6709 16.4441 28.1132 16.2101 27.3643H13.0994C14.3996 29.8943 16.7474 31.8009 19.5659 32.5084C19.1691 31.9764 18.8074 31.3073 18.4916 30.5096C18.2753 29.9634 18.085 29.37 17.9217 28.7396Z" fill="#001C25"/>
<path d="M18.7817 18.4036H24.0297C24.183 17.9127 24.5237 17.5039 24.9676 17.261C24.2663 14.4966 23.093 12.8086 21.9998 12.8086C20.7631 12.8086 19.4243 14.9689 18.7817 18.4036Z" fill="#001C25"/>
<path d="M16.4737 14.8692C16.4737 15.9549 15.5904 16.8383 14.5047 16.8383C14.3401 16.8383 14.1804 16.8177 14.0275 16.7795C13.6438 17.2856 13.3073 17.8292 13.0242 18.4037H17.5917C17.8051 17.1927 18.108 16.0767 18.4916 15.1076C18.8074 14.31 19.1691 13.6408 19.5659 13.1089C18.4354 13.3927 17.3806 13.8692 16.4388 14.5017C16.4614 14.6209 16.4737 14.7436 16.4737 14.8692Z" fill="#001C25"/>
<path d="M27.5263 30.748C27.5263 29.6623 28.4096 28.779 29.4953 28.779C29.6599 28.779 29.8196 28.7996 29.9725 28.8378C30.3226 28.3761 30.6338 27.8834 30.9006 27.3643H26.3809C26.1692 28.5171 25.8761 29.5811 25.5084 30.5096C25.1926 31.3073 24.8309 31.9764 24.4341 32.5084C25.5646 32.2246 26.6194 31.7481 27.5612 31.1155C27.5386 30.9964 27.5263 30.8737 27.5263 30.748Z" fill="#001C25"/>
<path d="M25.1895 27.3643H19.9702C19.8209 27.8424 19.4935 28.2423 19.0664 28.4873C19.7713 31.1736 20.9244 32.8086 22.0002 32.8086C23.2186 32.8086 24.5364 30.7114 25.1895 27.3643Z" fill="#001C25"/>
<path d="M31.4101 26.1926C31.7915 25.1353 31.9999 23.996 31.9999 22.8088C31.9999 21.6779 31.8109 20.5903 31.4633 19.5757H27.7898C27.6198 20.1201 27.219 20.5634 26.7027 20.7915C26.7517 21.4504 26.7771 22.1249 26.7771 22.8088C26.7771 23.9743 26.7042 25.113 26.564 26.1926H31.4101Z" fill="#001C25"/>
<path d="M25.9099 19.7867C26.3495 19.7867 26.7071 19.4291 26.7071 18.9895C26.7071 18.55 26.3495 18.1924 25.9099 18.1924C25.4704 18.1924 25.1128 18.55 25.1128 18.9895C25.1128 19.4291 25.4704 19.7867 25.9099 19.7867Z" fill="#001C25"/>
<path d="M18.0901 27.5755C18.5304 27.5755 18.8873 27.2186 18.8873 26.7784C18.8873 26.3381 18.5304 25.9812 18.0901 25.9812C17.6499 25.9812 17.293 26.3381 17.293 26.7784C17.293 27.2186 17.6499 27.5755 18.0901 27.5755Z" fill="#001C25"/>
<path d="M14.5047 15.6663C14.9449 15.6663 15.3018 15.3094 15.3018 14.8692C15.3018 14.4289 14.9449 14.072 14.5047 14.072C14.0644 14.072 13.7075 14.4289 13.7075 14.8692C13.7075 15.3094 14.0644 15.6663 14.5047 15.6663Z" fill="#001C25"/>
<path d="M29.4954 29.9509C29.0558 29.9509 28.6982 30.3085 28.6982 30.7481C28.6982 31.1876 29.0558 31.5452 29.4954 31.5452C29.9349 31.5452 30.2925 31.1876 30.2925 30.7481C30.2925 30.3085 29.9349 29.9509 29.4954 29.9509Z" fill="#001C25"/>
</g>
<defs>
<clipPath id="clip0_1_4328">
<rect width="20" height="20" fill="white" transform="translate(12 12.8086)"/>
</clipPath>
</defs>
</svg>
