<svg width="48" height="49" viewBox="0 0 48 49" fill="none" xmlns="http://www.w3.org/2000/svg">
<circle cx="24" cy="24.8086" r="24" fill="#F8DFA1"/>
<g clip-path="url(#clip0_1_4427)">
<path d="M10.4427 23.393C10.7464 23.8892 11.188 24.2865 11.7137 24.5365C11.963 24.655 12.069 24.9535 11.9502 25.203C11.8314 25.4523 11.533 25.5582 11.2837 25.4394C11.0837 25.3427 10.8923 25.2295 10.7112 25.1009C11.2596 26.7265 12.7829 27.8222 14.4987 27.8249H14.5286C14.4997 27.5489 14.4933 27.2712 14.5091 26.9944C14.7307 24.3282 16.9779 22.2881 19.6531 22.3249H22.4985C22.7747 22.3249 22.9984 22.101 22.9984 21.825C22.9984 20.9966 23.67 20.325 24.4984 20.325H25.9985C26.2747 20.325 26.4983 20.5488 26.4983 20.825C26.4983 21.101 26.2747 21.3249 25.9985 21.3249H24.4984C24.2222 21.3249 23.9986 21.5488 23.9986 21.825C23.9986 22.6534 23.3269 23.3248 22.4985 23.3248H19.6531C17.5052 23.287 15.6943 24.9178 15.5076 27.0578C15.4832 27.4364 15.5125 27.8164 15.5945 28.1868C15.6161 28.2868 15.6415 28.3808 15.6702 28.4754C15.6755 28.4938 15.6811 28.5128 15.687 28.5314C15.718 28.6314 15.7526 28.7264 15.7911 28.8208L15.803 28.8492C16.2824 29.9962 17.2636 30.8581 18.4626 31.1858L18.4991 31.1952C18.5906 31.2194 18.6835 31.2392 18.7775 31.2567C18.8245 31.2653 18.8725 31.2717 18.92 31.2787C18.9881 31.2888 19.0556 31.2993 19.1246 31.3059C19.2481 31.3172 19.3745 31.3249 19.4984 31.3249C20.7637 31.3215 21.9529 30.7206 22.7066 29.7044C22.4697 29.5531 22.2424 29.3878 22.0256 29.2094C21.8132 29.0327 21.7842 28.7174 21.9608 28.5051C22.1373 28.2928 22.4526 28.2637 22.6649 28.4404C24.0464 29.5897 25.8709 30.0579 27.6352 29.7159C29.3995 29.3737 30.9166 28.2573 31.7683 26.6748C31.5 26.3102 31.2956 25.9026 31.1638 25.4694C31.0875 25.2055 31.2383 24.9293 31.5017 24.8511C31.7649 24.7727 32.0422 24.9216 32.1223 25.1844C32.5098 26.4988 33.7388 27.3836 35.1083 27.334C36.4778 27.2845 37.6397 26.3132 37.9311 24.9742C38.2226 23.6352 37.5698 22.2689 36.3447 21.6545C36.2811 21.9453 36.1956 22.2309 36.0892 22.509C35.9888 22.7662 35.6987 22.8935 35.4413 22.7929C35.1839 22.6925 35.0568 22.4022 35.1572 22.145C35.3142 21.7408 35.4174 21.3179 35.4637 20.887C35.4719 20.818 35.4768 20.7535 35.4817 20.6871C35.4902 20.5664 35.4983 20.4465 35.4983 20.325C35.4983 18.1572 34.0985 16.2376 32.0343 15.5751C32.1915 15.8129 32.3312 16.062 32.4523 16.32C32.5357 16.4834 32.5226 16.6795 32.4186 16.8306C32.3146 16.9816 32.136 17.0636 31.9535 17.0442C31.7711 17.0245 31.6141 16.9066 31.5442 16.737C30.4518 14.3951 27.7593 13.2657 25.323 14.1276C24.9543 14.2545 24.602 14.4244 24.2731 14.6335C24.0415 14.7843 23.7317 14.7189 23.5809 14.4876C23.4301 14.2562 23.4955 13.9463 23.727 13.7955C23.8025 13.7455 23.8815 13.7025 23.959 13.6566C22.9001 13.1537 21.6577 13.2266 20.665 13.8502C20.8968 14.055 21.104 14.2861 21.2826 14.5391C21.3892 14.6854 21.4082 14.8779 21.3326 15.0424C21.257 15.2068 21.0982 15.3177 20.9177 15.3318C20.7372 15.3461 20.5631 15.2615 20.4625 15.1109C20.2267 14.7749 19.9246 14.4904 19.5751 14.275H19.5704C18.2688 13.4656 16.5652 13.7779 15.6356 14.9966C15.8334 15.053 16.0265 15.125 16.2132 15.212C16.3787 15.2861 16.4913 15.444 16.5073 15.6247C16.5231 15.8054 16.44 15.9806 16.2899 16.0825C16.1397 16.1842 15.9462 16.1968 15.784 16.1149C14.9744 15.7324 14.0362 15.7313 13.2257 16.1124C12.4155 16.4933 11.8175 17.2164 11.5956 18.0841C11.8645 17.9818 12.1435 17.9089 12.4281 17.8671C12.7017 17.828 12.9551 18.0183 12.9939 18.2917C13.0328 18.5652 12.8427 18.8185 12.569 18.8574C12.1119 18.9232 11.6763 19.0943 11.2967 19.3575L11.2901 19.363C9.98766 20.2628 9.61276 22.0224 10.4356 23.3748C10.4386 23.3819 10.4397 23.3878 10.4427 23.393Z" fill="#001C25"/>
<path d="M31.2483 32.8247C33.8673 32.8247 35.9982 31.1429 35.9982 29.0749C35.9973 28.7869 35.9544 28.5004 35.8706 28.2249C34.6814 28.4957 33.4336 28.2042 32.4877 27.4338C31.318 29.362 29.2958 30.6136 27.0483 30.8003C27.7729 31.8145 28.8694 32.5009 30.0984 32.7094C30.4765 32.7876 30.8621 32.8262 31.2483 32.8247Z" fill="#001C25"/>
<path d="M25.8981 30.7926C25.1953 30.7308 24.5058 30.5638 23.8525 30.2965C23.8344 30.2944 23.8164 30.2908 23.7987 30.2861C23.7487 30.2647 23.6987 30.2391 23.6487 30.2171C23.6287 30.2081 23.6071 30.2021 23.5872 30.1925C23.4135 30.4371 23.2181 30.6655 23.0032 30.8746C23.0301 31.6814 23.6908 32.3223 24.4981 32.3246C24.945 32.315 25.3739 32.5009 25.6726 32.8335L28.5646 36.1461C28.6675 36.2582 28.8124 36.323 28.9644 36.3245C29.2582 36.3253 29.497 36.0882 29.4981 35.7945V33.5876C27.9463 33.2287 26.6302 32.2069 25.8981 30.7926Z" fill="#001C25"/>
</g>
<defs>
<clipPath id="clip0_1_4427">
<rect width="28" height="28" fill="white" transform="translate(10 10.8086)"/>
</clipPath>
</defs>
</svg>
