<svg width="10" height="7" viewBox="0 0 10 7" fill="none" xmlns="http://www.w3.org/2000/svg">
<g opacity="0.9">
<path d="M9.60419 2.40911C8.48593 1.28312 6.9364 0.585938 5.22411 0.585938C3.50662 0.585938 1.95299 1.28732 0.833984 2.41928L1.80396 3.38931C2.67472 2.50557 3.88549 1.95772 5.22411 1.95772C6.55762 1.95772 7.76412 2.50137 8.63413 3.37912L9.60419 2.40911Z" fill="#001C25"/>
<path d="M8.02795 3.98536C7.31309 3.26276 6.32084 2.81508 5.22411 2.81508C4.12218 2.81508 3.12583 3.26697 2.41022 3.99556L3.38028 4.96563C3.84756 4.48526 4.50104 4.18686 5.22411 4.18686C5.94206 4.18686 6.59128 4.48101 7.05789 4.95539L8.02795 3.98536Z" fill="#001C25"/>
<path d="M6.45162 5.56166C6.14025 5.24243 5.70529 5.04422 5.22411 5.04422C4.73774 5.04422 4.29868 5.2467 3.98663 5.57196L5.21398 6.79931L6.45162 5.56166Z" fill="#001C25"/>
</g>
</svg>
