<svg width="16" height="12" viewBox="0 0 16 12" fill="none" xmlns="http://www.w3.org/2000/svg">
<g opacity="0.9">
<path d="M15.0847 3.94405C13.2394 2.086 10.6824 0.935547 7.8569 0.935547C5.0228 0.935547 2.45908 2.09292 0.612549 3.96083L2.21315 5.56152C3.65003 4.10322 5.64798 3.19918 7.8569 3.19918C10.0574 3.19918 12.0483 4.09628 13.4839 5.5447L15.0847 3.94405Z" fill="#001C25"/>
<path d="M12.4837 6.54509C11.304 5.35269 9.66668 4.61396 7.8569 4.61396C6.03856 4.61396 4.39444 5.35965 3.21358 6.56193L4.81431 8.16268C5.58539 7.37 6.66374 6.87759 7.8569 6.87759C9.04164 6.87759 10.1129 7.36299 10.8829 8.14577L12.4837 6.54509Z" fill="#001C25"/>
<path d="M9.88249 9.14622C9.36867 8.61944 8.65092 8.29236 7.8569 8.29236C7.05432 8.29236 6.32981 8.62649 5.81488 9.16321L7.84019 11.1885L9.88249 9.14622Z" fill="#001C25"/>
</g>
</svg>
