<svg width="36" height="37" viewBox="0 0 36 37" fill="none" xmlns="http://www.w3.org/2000/svg">
<g clip-path="url(#clip0_1_4739)">
<path d="M30 0.808594H6C2.691 0.808594 0 3.49959 0 6.80859V24.8086C0 28.1176 2.691 30.8086 6 30.8086H10.3845L16.008 35.5426C16.581 36.0526 17.2995 36.3061 18.0135 36.3046C18.7155 36.3046 19.41 36.0616 19.9515 35.5786L25.722 30.8086H30.0015C33.3105 30.8086 36.0015 28.1176 36.0015 24.8086V6.80859C36.0015 3.49959 33.309 0.808594 30 0.808594ZM16.5 17.3086C16.5 20.6176 13.809 23.3086 10.5 23.3086C9.6705 23.3086 9 22.6381 9 21.8086C9 20.9791 9.6705 20.3086 10.5 20.3086C12.1545 20.3086 13.5 18.9631 13.5 17.3086H11.25C10.008 17.3086 9 16.3006 9 15.0586V12.8086C9 11.1511 10.3425 9.80859 12 9.80859H14.25C15.492 9.80859 16.5 10.8166 16.5 12.0586V17.3086ZM27 17.3086C27 20.6176 24.309 23.3086 21 23.3086C20.1705 23.3086 19.5 22.6381 19.5 21.8086C19.5 20.9791 20.1705 20.3086 21 20.3086C22.6545 20.3086 24 18.9631 24 17.3086H21.75C20.508 17.3086 19.5 16.3006 19.5 15.0586V12.8086C19.5 11.1511 20.8425 9.80859 22.5 9.80859H24.75C25.992 9.80859 27 10.8166 27 12.0586V17.3086Z" fill="#D9BEFB"/>
</g>
<defs>
<clipPath id="clip0_1_4739">
<rect width="36" height="36" fill="white" transform="translate(0 0.808594)"/>
</clipPath>
</defs>
</svg>
