<svg width="48" height="48" viewBox="0 0 48 48" fill="none" xmlns="http://www.w3.org/2000/svg">
<g clip-path="url(#clip0_1_1000)">
<path d="M40 0H8C3.588 0 0 3.588 0 8V32C0 36.412 3.588 40 8 40H13.846L21.344 46.312C22.108 46.992 23.066 47.33 24.018 47.328C24.954 47.328 25.88 47.004 26.602 46.36L34.296 40H40.002C44.414 40 48.002 36.412 48.002 32V8C48.002 3.588 44.412 0 40 0ZM22 22C22 26.412 18.412 30 14 30C12.894 30 12 29.106 12 28C12 26.894 12.894 26 14 26C16.206 26 18 24.206 18 22H15C13.344 22 12 20.656 12 19V16C12 13.79 13.79 12 16 12H19C20.656 12 22 13.344 22 15V22ZM36 22C36 26.412 32.412 30 28 30C26.894 30 26 29.106 26 28C26 26.894 26.894 26 28 26C30.206 26 32 24.206 32 22H29C27.344 22 26 20.656 26 19V16C26 13.79 27.79 12 30 12H33C34.656 12 36 13.344 36 15V22Z" fill="#D9BEFB"/>
</g>
<defs>
<clipPath id="clip0_1_1000">
<rect width="48" height="48" fill="white"/>
</clipPath>
</defs>
</svg>
