<svg width="20" height="21" viewBox="0 0 20 21" fill="none" xmlns="http://www.w3.org/2000/svg">
<g clip-path="url(#clip0_1_4631)">
<path d="M12.3525 10.5653C12.396 10.589 12.4321 10.6243 12.457 10.6672C12.4818 10.7101 12.4944 10.759 12.4933 10.8086C12.4959 10.8509 12.4881 10.8931 12.4706 10.9317C12.4532 10.9704 12.4267 11.0042 12.3933 11.0303L7.91667 13.2703C7.87403 13.2938 7.826 13.3059 7.77729 13.3053C7.72858 13.3047 7.68087 13.2914 7.63884 13.2668C7.59681 13.2421 7.56192 13.207 7.53757 13.1648C7.51323 13.1226 7.50028 13.0748 7.5 13.0261V8.59109C7.49906 8.54165 7.51159 8.49288 7.53625 8.45001C7.56092 8.40715 7.59678 8.3718 7.64 8.34776C7.67978 8.32481 7.72491 8.31274 7.77083 8.31276C7.83803 8.31474 7.90353 8.33427 7.96083 8.36943L12.3525 10.5653ZM20 4.97526V16.6419C19.9987 17.7466 19.5593 18.8056 18.7782 19.5867C17.997 20.3679 16.938 20.8073 15.8333 20.8086H4.16667C3.062 20.8073 2.00296 20.3679 1.22185 19.5867C0.440735 18.8056 0.00132321 17.7466 0 16.6419L0 4.97526C0.00132321 3.8706 0.440735 2.81156 1.22185 2.03044C2.00296 1.24933 3.062 0.809917 4.16667 0.808594L15.8333 0.808594C16.938 0.809917 17.997 1.24933 18.7782 2.03044C19.5593 2.81156 19.9987 3.8706 20 4.97526ZM14.16 10.8086C14.1603 10.4575 14.0655 10.1128 13.8856 9.81131C13.7057 9.50978 13.4474 9.26262 13.1383 9.09609L8.74 6.90026C8.44375 6.73029 8.10801 6.64122 7.76646 6.64199C7.42492 6.64275 7.08958 6.73333 6.7941 6.90463C6.49861 7.07592 6.25337 7.32192 6.08298 7.61792C5.9126 7.91393 5.82305 8.24955 5.82333 8.59109V13.0261C5.82133 13.3676 5.91009 13.7035 6.08053 13.9994C6.25096 14.2953 6.49695 14.5406 6.79333 14.7103C7.09334 14.8854 7.43427 14.9783 7.78167 14.9794C8.10305 14.9809 8.41917 14.8978 8.69833 14.7386L13.1783 12.4994C13.4779 12.3307 13.7269 12.085 13.8995 11.7877C14.0721 11.4904 14.162 11.1524 14.16 10.8086Z" fill="#001C25"/>
</g>
<defs>
<clipPath id="clip0_1_4631">
<rect width="20" height="20" fill="white" transform="translate(0 0.808594)"/>
</clipPath>
</defs>
</svg>
