<svg width="20" height="13" viewBox="0 0 20 13" fill="none" xmlns="http://www.w3.org/2000/svg">
<path d="M16.2843 9.78755H17.4494V3.14258H16.2751L14.5391 4.3629V5.45427L16.2567 4.2754H16.2843V9.78755Z" fill="#001C25"/>
<path d="M11.841 9.78755H12.9738V8.51198H13.8764V7.53572H12.9738V3.14258H11.2838L8.52539 7.49888V8.51198H11.841V9.78755ZM9.59374 7.56335V7.53112L11.8318 4.04055H11.8594V7.56335H9.59374Z" fill="#001C25"/>
<path d="M7.09375 5.44021C7.46675 5.44021 7.75686 5.14549 7.75686 4.77249C7.75686 4.39949 7.46675 4.10938 7.09375 4.10938C6.72074 4.10938 6.42603 4.39949 6.42603 4.77249C6.42603 5.14549 6.72074 5.44021 7.09375 5.44021ZM7.09375 8.82026C7.46675 8.82026 7.75686 8.52554 7.75686 8.15254C7.75686 7.77954 7.46675 7.48943 7.09375 7.48943C6.72074 7.48943 6.42603 7.77954 6.42603 8.15254C6.42603 8.52554 6.72074 8.82026 7.09375 8.82026Z" fill="#001C25"/>
<path d="M2.92614 3.02734C1.49399 3.02734 0.439453 3.98978 0.439453 5.32983V5.33904C0.439453 6.58699 1.34203 7.50798 2.62221 7.50798C3.52018 7.50798 4.18329 7.04749 4.44577 6.43963H4.4734C4.4734 6.51331 4.4688 6.58238 4.46419 6.65146C4.41814 7.90862 3.97146 8.93092 2.90311 8.93092C2.30907 8.93092 1.90383 8.6362 1.72424 8.18031L1.71042 8.13886H0.531552L0.540762 8.18952C0.747986 9.1934 1.66898 9.90257 2.89851 9.90257C4.59313 9.90257 5.61083 8.59015 5.61083 6.39358V6.38437C5.61083 4.05425 4.39051 3.02734 2.92614 3.02734ZM2.92614 6.59159C2.17092 6.59159 1.60911 6.05281 1.60911 5.2976V5.28839C1.60911 4.57001 2.20316 3.99899 2.93995 3.99899C3.68595 3.99899 4.26618 4.57461 4.26618 5.31141V5.31602C4.26618 6.05742 3.68595 6.59159 2.92614 6.59159Z" fill="#001C25"/>
</svg>
