<svg width="33" height="20" viewBox="0 0 33 20" fill="none" xmlns="http://www.w3.org/2000/svg">
<path d="M26.9432 15.8206H28.8657V4.85547H26.928L24.0632 6.86917V8.6701L26.8976 6.72479H26.9432V15.8206Z" fill="#001C25"/>
<path d="M19.6106 15.8206H21.4799V13.7158H22.9693V12.1048H21.4799V4.85547H18.6911L14.1394 12.044V13.7158H19.6106V15.8206ZM15.9023 12.1504V12.0972L19.5954 6.33725H19.641V12.1504H15.9023Z" fill="#001C25"/>
<path d="M11.7759 8.64554C12.3914 8.64554 12.8701 8.15921 12.8701 7.5437C12.8701 6.92819 12.3914 6.44946 11.7759 6.44946C11.1604 6.44946 10.6741 6.92819 10.6741 7.5437C10.6741 8.15921 11.1604 8.64554 11.7759 8.64554ZM11.7759 14.2231C12.3914 14.2231 12.8701 13.7368 12.8701 13.1213C12.8701 12.5058 12.3914 12.027 11.7759 12.027C11.1604 12.027 10.6741 12.5058 10.6741 13.1213C10.6741 13.7368 11.1604 14.2231 11.7759 14.2231Z" fill="#001C25"/>
<path d="M4.8988 4.66406C2.53555 4.66406 0.79541 6.25223 0.79541 8.4635V8.4787C0.79541 10.538 2.28479 12.0578 4.39728 12.0578C5.87906 12.0578 6.9733 11.2979 7.40643 10.2948H7.45203C7.45203 10.4164 7.44443 10.5304 7.43683 10.6444C7.36084 12.7189 6.62375 14.4058 4.86081 14.4058C3.88055 14.4058 3.21185 13.9195 2.9155 13.1672L2.8927 13.0988H0.947388L0.962585 13.1824C1.30453 14.839 2.82431 16.0092 4.85321 16.0092C7.6496 16.0092 9.32895 13.8435 9.32895 10.2188V10.2036C9.32895 6.35861 7.31525 4.66406 4.8988 4.66406ZM4.8988 10.5456C3.65259 10.5456 2.72552 9.65652 2.72552 8.41031V8.39511C2.72552 7.20969 3.70578 6.26743 4.9216 6.26743C6.15262 6.26743 7.11008 7.21729 7.11008 8.43311V8.4407C7.11008 9.66412 6.15262 10.5456 4.8988 10.5456Z" fill="#001C25"/>
</svg>
