<svg width="18" height="19" viewBox="0 0 18 19" fill="none" xmlns="http://www.w3.org/2000/svg">
<path d="M8.16381 1.39212C8.47318 0.614084 9.52686 0.614085 9.83623 1.39212L11.6621 5.98423C11.7926 6.31224 12.0875 6.53635 12.426 6.56473L17.1654 6.96218C17.9684 7.02952 18.294 8.07775 17.6822 8.62594L14.0713 11.8614C13.8134 12.0926 13.7007 12.4552 13.7795 12.8007L14.8827 17.6385C15.0696 18.4581 14.2172 19.106 13.5297 18.6668L9.4721 16.0743C9.18227 15.8891 8.81777 15.8891 8.52795 16.0743L4.4703 18.6668C3.78281 19.106 2.93037 18.4581 3.11728 17.6385L4.22049 12.8007C4.29929 12.4552 4.18665 12.0926 3.92874 11.8614L0.317757 8.62594C-0.294047 8.07775 0.0315611 7.02952 0.834564 6.96218L5.57403 6.56473C5.91256 6.53635 6.20746 6.31224 6.33788 5.98423L8.16381 1.39212Z" fill="#F8DFA1"/>
</svg>
