<svg width="22" height="22" viewBox="0 0 22 22" fill="none" xmlns="http://www.w3.org/2000/svg">
<path d="M9.97799 0.713199C10.3561 -0.237734 11.6439 -0.237733 12.0221 0.713202L14.2537 6.32578C14.4132 6.72667 14.7736 7.00059 15.1874 7.03528L20.98 7.52105C21.9614 7.60336 22.3594 8.88452 21.6116 9.55454L17.1983 13.509C16.8831 13.7915 16.7453 14.2348 16.8417 14.657L18.19 20.5699C18.4184 21.5716 17.3766 22.3635 16.5363 21.8267L11.577 18.6581C11.2228 18.4317 10.7773 18.4317 10.4231 18.6581L5.4637 21.8267C4.62343 22.3635 3.58156 21.5716 3.81001 20.5699L5.15838 14.657C5.25469 14.2348 5.11702 13.7915 4.80179 13.509L0.388369 9.55454C-0.35939 8.88452 0.0385747 7.60336 1.02002 7.52105L6.81271 7.03528C7.22647 7.00059 7.58689 6.72667 7.74629 6.32578L9.97799 0.713199Z" fill="#F8DFA1"/>
</svg>
