<svg width="80" height="101" viewBox="0 0 80 101" fill="none" xmlns="http://www.w3.org/2000/svg">
<path d="M1.94922 93.1767H0.949219V94.1767H1.94922V93.1767ZM79.1875 93.8838C79.5781 93.4933 79.5781 92.8601 79.1875 92.4696L72.8236 86.1056C72.433 85.7151 71.7999 85.7151 71.4094 86.1056C71.0188 86.4961 71.0188 87.1293 71.4094 87.5198L77.0662 93.1767L71.4094 98.8335C71.0188 99.2241 71.0188 99.8572 71.4094 100.248C71.7999 100.638 72.433 100.638 72.8236 100.248L79.1875 93.8838ZM0.949219 0.746094V93.1767H2.94922V0.746094H0.949219ZM1.94922 94.1767H78.4804V92.1767H1.94922V94.1767Z" fill="#798386"/>
</svg>
